<svg width="24" height="24" viewBox="0 0 24 24" fill="none" xmlns="http://www.w3.org/2000/svg">
<mask id="mask0_830_653" style="mask-type:alpha" maskUnits="userSpaceOnUse" x="0" y="0" width="24" height="24">
<rect width="24" height="24" fill="#D9D9D9"/>
</mask>
<g mask="url(#mask0_830_653)">
<path d="M4 20C3.45 20 2.97917 19.8042 2.5875 19.4125C2.19583 19.0208 2 18.55 2 18V14H7V15H9V14H15V15H17V14H22V18C22 18.55 21.8042 19.0208 21.4125 19.4125C21.0208 19.8042 20.55 20 20 20H4ZM2.425 12L4.5 7.2C4.65 6.83333 4.89167 6.54167 5.225 6.325C5.55833 6.10833 5.91667 6 6.3 6H7V5C7 4.45 7.19583 3.97917 7.5875 3.5875C7.97917 3.19583 8.45 3 9 3H15C15.55 3 16.0208 3.19583 16.4125 3.5875C16.8042 3.97917 17 4.45 17 5V6H17.7C18.0833 6 18.4417 6.10833 18.775 6.325C19.1083 6.54167 19.35 6.83333 19.5 7.2L21.575 12H17V11H15V12H9V11H7V12H2.425ZM9 6H15V5H9V6Z" fill="#C7C7C7"/>
</g>
</svg>
